PathFileType	4	(X/Y/Z)	/Users/itak/Documents/Research/Walk-IL/dataset/trc/00205_00008.trc
DataRate	CameraRate	NumFrames	NumMarkers	Units	OrigDataRate	OrigDataStartFrame	OrigNumFrames
100.000000	100.000000	4	53	mm	100.000000	126	505
Frame#	Time	RPSI			LPSI			L3			STRN			T10			C7			CLAV			RBAK			LBAK			LSHO			LUPA			LAEL			LAOL			LWTS			LWPS			LFRA			LIFD			LHPS			LHTS			RSHO			RUPA			RAEL			RAOL			RWTS			RWPS			RFRA			RIFD			RHTS			RHPS			RBHD			LFHD			RFHD			LBHD			LHIP			RHIP			RASI			LASI			LKNE			LTHI			LANK			LTIP			LTOE			LMT1			LMT5			LHEE			RKNE			RTHI			RANK			RTIP			RTOE			RMT1			RMT5			RHEE			
		X1	Y1	Z1	X2	Y2	Z2	X3	Y3	Z3	X4	Y4	Z4	X5	Y5	Z5	X6	Y6	Z6	X7	Y7	Z7	X8	Y8	Z8	X9	Y9	Z9	X10	Y10	Z10	X11	Y11	Z11	X12	Y12	Z12	X13	Y13	Z13	X14	Y14	Z14	X15	Y15	Z15	X16	Y16	Z16	X17	Y17	Z17	X18	Y18	Z18	X19	Y19	Z19	X20	Y20	Z20	X21	Y21	Z21	X22	Y22	Z22	X23	Y23	Z23	X24	Y24	Z24	X25	Y25	Z25	X26	Y26	Z26	X27	Y27	Z27	X28	Y28	Z28	X29	Y29	Z29	X30	Y30	Z30	X31	Y31	Z31	X32	Y32	Z32	X33	Y33	Z33	X34	Y34	Z34	X35	Y35	Z35	X36	Y36	Z36	X37	Y37	Z37	X38	Y38	Z38	X39	Y39	Z39	X40	Y40	Z40	X41	Y41	Z41	X42	Y42	Z42	X43	Y43	Z43	X44	Y44	Z44	X45	Y45	Z45	X46	Y46	Z46	X47	Y47	Z47	X48	Y48	Z48	X49	Y49	Z49	X50	Y50	Z50	X51	Y51	Z51	X52	Y52	Z52	X53	Y53	Z53	

127	1.26	-1521.4375	1020.458068847656	-594.0596923828125	-1511.599365234375	1021.359130859375	-717.3701171875	-1512.640869140625	1060.775756835938	-655.5958251953125	-1236.732666015625	1245.433471679688	-636.2504272460938	-1530.855346679688	1221.629516601562	-671.4436645507812	-1439.583374023438	1483.541870117188	-675.5472412109375	-1251.902465820312	1362.025024414062	-646.9478759765625	-1535.598510742188	1315.160888671875	-577.2590942382812	-1435.212768554688	1459.174682617188	-776.8346557617188	-1349.790283203125	1438.470581054688	-844.62890625	-1380.573486328125	1310.222778320312	-924.5340576171875	-1377.34033203125	1092.484252929688	-950.5054931640625	-1440.260131835938	1080.283325195312	-889.6658935546875	-1302.097290039062	848.1403198242188	-910.0079345703125	-1372.94482421875	839.633056640625	-967.9716796875	-1371.3798828125	982.2904052734375	-967.3201293945312	-1317.026733398438	663.3737182617188	-895.5776977539062	-1360.892944335938	768.1544189453125	-964.9779663085938	-1295.492065429688	769.51318359375	-933.3820190429688	-1403.403076171875	1455.482177734375	-487.3659362792969	-1438.588500976562	1390.306762695312	-423.12646484375	-1482.697509765625	1103.619384765625	-380.4620361328125	-1461.64453125	1093.765258789062	-476.0444641113281	-1370.821655273438	865.6893920898438	-348.4007873535156	-1456.738525390625	858.7202758789062	-326.7840881347656	-1471.748779296875	1032.249755859375	-354.4024047851562	-1371.005859375	674.7235717773438	-361.8465881347656	-1357.724243164062	770.8820190429688	-329.1488342285156	-1438.044067382812	773.9163818359375	-316.6017761230469	-1405.966796875	1630.5849609375	-609.02978515625	-1208.632202148438	1690.393310546875	-676.7059326171875	-1251.004638671875	1687.752197265625	-554.5368041992188	-1368.97900390625	1640.633178710938	-741.1218872070312	-1408.855712890625	954.3167724609375	-829.896484375	-1378.756713867188	980.3965454101562	-458.1974182128906	-1291.693481445312	1000.767517089844	-511.8411865234375	-1282.991088867188	983.3311157226562	-770.9500122070312	-1486.275512695312	472.4937133789062	-761.5487060546875	-1447.587646484375	608.5931396484375	-795.1497192382812	-1690.344970703125	45.04168319702148	-732.1087646484375	-1586.764770507812	266.040771484375	-758.7549438476562	-1470.637939453125	39.42414093017578	-715.7169189453125	-1517.97265625	42.17145919799805	-668.7860717773438	-1585.04345703125	30.12003707885742	-779.1211547851562	-1737.7998046875	53.51422119140625	-660.4099731445312	-1174.779541015625	528.8158569335938	-462.2976379394531	-1264.3486328125	779.39892578125	-438.891357421875	-1034.230224609375	47.77179718017578	-462.2295837402344	-1113.326416015625	424.3066711425781	-470.004150390625	-851.3636474609375	164.8622741699219	-454.63720703125	-883.9510498046875	135.0061798095703	-507.0620727539062	-942.5537109375	91.60426330566406	-408.167236328125	-1066.854125976562	30.95046424865723	-537.7813110351562	
128	1.27	-1514.337890625	1019.440063476562	-592.1273803710938	-1504.836059570312	1020.541564941406	-715.4505615234375	-1505.697265625	1059.850341796875	-653.634033203125	-1229.787475585938	1244.676147460938	-634.311279296875	-1524.007446289062	1220.635864257812	-669.2068481445312	-1432.955322265625	1482.626831054688	-673.078857421875	-1245.149780273438	1361.230224609375	-644.796142578125	-1528.764282226562	1314.009033203125	-574.9451904296875	-1428.66552734375	1458.394287109375	-774.412109375	-1343.260986328125	1437.761840820312	-842.3451538085938	-1374.1572265625	1309.474853515625	-922.212890625	-1370.996826171875	1091.763549804688	-948.1528930664062	-1433.813598632812	1079.558227539062	-887.193115234375	-1296.024169921875	847.3016357421875	-908.02783203125	-1366.994750976562	838.9681396484375	-965.840576171875	-1365.215698242188	981.6160278320312	-965.0573120117188	-1311.22216796875	662.5612182617188	-893.742919921875	-1355.020629882812	767.4733276367188	-962.9507446289062	-1289.7470703125	768.6552734375	-931.529541015625	-1396.672119140625	1454.336669921875	-484.9518127441406	-1431.812255859375	1389.029541015625	-420.8429870605469	-1475.952880859375	1102.433349609375	-378.5086975097656	-1454.85546875	1092.736694335938	-474.0666198730469	-1364.861938476562	864.2276611328125	-346.1333923339844	-1450.879028320312	857.5576171875	-324.7976989746094	-1465.2041015625	1031.08447265625	-352.4406433105469	-1365.613525390625	673.2550048828125	-359.5007019042969	-1352.189453125	769.3876953125	-326.8401794433594	-1432.456665039062	772.71533203125	-314.5177307128906	-1399.673583984375	1629.612548828125	-606.6360473632812	-1202.428100585938	1689.812866210938	-674.179443359375	-1244.870239257812	1687.058837890625	-552.04248046875	-1362.621337890625	1639.77880859375	-738.7274169921875	-1402.46923828125	953.7191772460938	-828.3912353515625	-1371.228271484375	979.3434448242188	-456.752197265625	-1284.223754882812	999.7196655273438	-510.5594482421875	-1276.356079101562	982.6651611328125	-769.7518310546875	-1481.5869140625	472.378173828125	-761.0384521484375	-1442.464233398438	608.42529296875	-794.3504028320312	-1690.055786132812	46.48179626464844	-731.9600830078125	-1584.233642578125	266.8028564453125	-758.3563232421875	-1470.587158203125	39.38720321655273	-715.79345703125	-1517.7890625	42.06302642822266	-668.9597778320312	-1585.042358398438	30.20527839660645	-778.9383544921875	-1737.437622070312	55.93058776855469	-660.2459106445312	-1167.681762695312	527.5000610351562	-461.28955078125	-1256.745971679688	778.3360595703125	-437.5884399414062	-1029.862182617188	45.7910270690918	-462.0815734863281	-1106.734130859375	422.6838073730469	-469.1837158203125	-846.0254516601562	161.4576721191406	-453.8125915527344	-878.802978515625	131.9279174804688	-506.3844299316406	-938.2024536132812	88.99888610839844	-407.7351684570312	-1062.393432617188	29.28389167785645	-537.7353515625	
129	1.28	-1507.000854492188	1018.557922363281	-590.0650024414062	-1497.851196289062	1019.875854492188	-713.4002685546875	-1498.522216796875	1059.062133789062	-651.5407104492188	-1222.650756835938	1244.088745117188	-632.2560424804688	-1516.944213867188	1219.7490234375	-666.8551635742188	-1426.186889648438	1481.854125976562	-670.4940185546875	-1238.207275390625	1360.611328125	-642.51953125	-1521.734008789062	1312.958862304688	-572.5234375	-1421.9501953125	1457.7568359375	-771.8731689453125	-1336.560180664062	1437.215209960938	-839.9378662109375	-1367.566772460938	1308.89599609375	-919.7713012695312	-1364.504516601562	1091.206665039062	-945.6329956054688	-1427.204956054688	1079.01025390625	-884.5348510742188	-1289.826293945312	846.6202392578125	-905.8731079101562	-1360.91943359375	838.4608764648438	-963.5137939453125	-1358.921508789062	981.1025390625	-962.6158447265625	-1305.314575195312	661.9159545898438	-891.6756591796875	-1349.0498046875	766.9517822265625	-960.7108154296875	-1283.811767578125	767.9561767578125	-929.47021484375	-1389.7939453125	1453.337036132812	-482.4251098632812	-1424.888305664062	1387.880615234375	-418.456787109375	-1469.034912109375	1101.36962890625	-376.4945678710938	-1447.8466796875	1091.811645507812	-472.0287475585938	-1358.666381835938	862.9129028320312	-343.869873046875	-1444.761962890625	856.5130004882812	-322.802490234375	-1458.476196289062	1030.037963867188	-350.4361877441406	-1359.946411132812	671.934814453125	-357.2195129394531	-1346.40234375	768.0266723632812	-324.5579223632812	-1426.594970703125	771.6331176757812	-312.4576416015625	-1393.239624023438	1628.759399414062	-604.1071166992188	-1196.100341796875	1689.405883789062	-671.5205078125	-1238.62841796875	1686.542114257812	-549.4152221679688	-1356.119018554688	1639.049438476562	-736.2069702148438	-1395.89599609375	953.2643432617188	-826.766357421875	-1363.412963867188	978.4349365234375	-455.1826477050781	-1276.494750976562	998.8009033203125	-509.2115478515625	-1269.51318359375	982.1420288085938	-768.4764404296875	-1476.648071289062	472.3627624511719	-760.561279296875	-1437.108642578125	608.3782958984375	-793.55859375	-1689.684936523438	48.17206954956055	-731.9213256835938	-1581.484130859375	267.6996459960938	-758.0133666992188	-1470.522216796875	39.33818435668945	-715.86767578125	-1517.60595703125	41.96594619750977	-669.1361083984375	-1585.001586914062	30.30889701843262	-778.7546997070312	-1737.005493164062	58.66270446777344	-660.218994140625	-1160.404907226562	526.1736450195312	-460.2177124023438	-1248.853637695312	777.400146484375	-436.2049255371094	-1026.413818359375	43.54140472412109	-462.1075439453125	-1100.192504882812	420.898681640625	-468.3157653808594	-841.4424438476562	157.3466644287109	-453.0843505859375	-874.4154663085938	128.2389678955078	-505.8142395019531	-934.7012939453125	85.84483337402344	-407.456787109375	-1058.900756835938	27.44561767578125	-537.8698120117188	
130	1.29	-1499.40625	1017.81396484375	-587.8663940429688	-1490.625610351562	1019.359741210938	-711.2122192382812	-1491.10107421875	1058.413696289062	-649.3111572265625	-1215.322875976562	1243.682861328125	-630.0875244140625	-1509.661010742188	1218.968139648438	-664.3848266601562	-1419.284301757812	1481.2275390625	-667.7966918945312	-1231.073974609375	1360.179565429688	-640.1207885742188	-1514.500366210938	1312.011474609375	-569.9885864257812	-1415.071655273438	1457.265014648438	-769.2142944335938	-1329.696044921875	1436.840209960938	-837.4039306640625	-1360.808471679688	1308.500244140625	-917.2117309570312	-1357.871215820312	1090.826293945312	-942.9494018554688	-1420.437255859375	1078.65087890625	-881.69189453125	-1283.492797851562	846.1117553710938	-903.5458984375	-1354.71533203125	838.1239624023438	-960.9932861328125	-1352.495483398438	980.760986328125	-959.9990234375	-1299.272705078125	661.4573364257812	-889.373779296875	-1342.972412109375	766.6017456054688	-958.2614135742188	-1277.70068359375	767.42724609375	-927.209228515625	-1382.763671875	1452.49560546875	-479.7890014648438	-1417.810180664062	1386.8740234375	-415.9678649902344	-1461.95068359375	1100.44384765625	-374.4208068847656	-1440.613647460938	1090.998046875	-469.9316711425781	-1352.22802734375	861.7637329101562	-341.6082763671875	-1438.383666992188	855.60009765625	-320.79736328125	-1451.572998046875	1029.125366210938	-348.3908996582031	-1353.99462890625	670.78076171875	-355.0101623535156	-1340.349609375	766.817138671875	-322.3030090332031	-1420.457763671875	770.6835327148438	-310.42333984375	-1386.666748046875	1628.03515625	-601.4483032226562	-1189.6494140625	1689.1787109375	-668.7352905273438	-1232.272583007812	1686.211303710938	-546.6578979492188	-1349.4755859375	1638.450561523438	-733.560791015625	-1389.108642578125	952.9471435546875	-825.0114135742188	-1355.293579101562	977.6783447265625	-453.4771423339844	-1268.500244140625	998.021240234375	-507.7861328125	-1262.44384765625	981.7677612304688	-767.1107788085938	-1471.419189453125	472.4421997070312	-760.104736328125	-1431.4755859375	608.44384765625	-792.7615966796875	-1689.210327148438	50.12448501586914	-732.0033569335938	-1578.472900390625	268.7266845703125	-757.7213745117188	-1470.432861328125	39.27394485473633	-715.9385375976562	-1517.4150390625	41.88376998901367	-669.30810546875	-1584.901611328125	30.4461612701416	-778.571533203125	-1736.481201171875	61.72872543334961	-660.3394165039062	-1153.001220703125	524.8277587890625	-459.0904846191406	-1240.68701171875	776.5778198242188	-434.7391052246094	-1023.84228515625	41.08988571166992	-462.3006896972656	-1093.7314453125	418.9624938964844	-467.4075317382812	-837.57373046875	152.6142730712891	-452.4507141113281	-870.7279052734375	124.0241470336914	-505.3488159179688	-931.9691162109375	82.21056365966797	-407.3292846679688	-1056.298828125	25.51228713989258	-538.1912231445312	
